<svg id="Слой_1" data-name="Слой 1" xmlns="http://www.w3.org/2000/svg" viewBox="0 0 256 256"><defs><style>.cls-1,.cls-2{fill:#fff;}.cls-1,.cls-3{stroke:#fff;stroke-miterlimit:10;}.cls-3{fill:none;}</style></defs><circle cx="128" cy="128" r="127"/><path class="cls-1" d="M128,56.73a70.6,70.6,0,1,0,70.6,70.6A70.6,70.6,0,0,0,128,56.73Zm7.53,131.91c-25.32-5.06-41-33.15-35.11-62.72S131.66,76.52,157,81.6s41,33.15,35.11,62.71S160.84,193.73,135.52,188.64Z"/><path class="cls-2" d="M248.15,116.58a31.43,31.43,0,0,0-4.76-7.76,54.37,54.37,0,0,0-13.65-11.49c-10.09-6.27-21.25-10.49-32.6-13.69-5.8-1.68-11.68-3-17.59-4.2.87.9,1.72,1.81,2.53,2.74,4.81,1,9.58,2.3,14.3,3.71,11.09,3.47,21.93,7.9,31.33,14.25a50.6,50.6,0,0,1,12.14,11.18,23.18,23.18,0,0,1,5.06,14.25A22.89,22.89,0,0,1,239,139.22a48,48,0,0,1-12.59,10c-9.6,5.45-20.48,8.95-31.5,11.53-2.56.59-5.12,1.12-7.7,1.61-8.58,1.62-17.28,2.73-26,3.53-11.36,1-22.76,1.52-34.17,1.54S104.23,167,92.88,166c-6.91-.61-13.84-1.39-20.69-2.5Q65.6,162.44,59.11,161c-11-2.54-22-6-31.65-11.46a49,49,0,0,1-12.72-10,26,26,0,0,1-4.24-6.54,21.59,21.59,0,0,1-1.75-7.36,23.52,23.52,0,0,1,5.16-14.48A50.46,50.46,0,0,1,26.16,99.82c9.47-6.35,20.35-10.74,31.46-14.19a230,230,0,0,1,52.11-8.72c1.34-.68,2.71-1.33,4.1-1.93q-11.1.51-22.12,1.89a222,222,0,0,0-34.66,7C45.72,87.13,34.61,91.4,24.58,97.65A54,54,0,0,0,11,109.07a27.26,27.26,0,0,0-6.66,16.5,28.24,28.24,0,0,0,5.84,17.08,52.43,52.43,0,0,0,6,6.86,75.08,75.08,0,0,0,7,5.78c9.83,7.14,20.9,12.34,32.29,16.47a193.45,193.45,0,0,0,28.1,7.79,224.09,224.09,0,0,0,43.38,4.26,225.44,225.44,0,0,0,43.11-4A192.87,192.87,0,0,0,198.6,172c11.43-4.09,22.56-9.25,32.44-16.42a71.2,71.2,0,0,0,7.1-5.79,55,55,0,0,0,6.08-6.92,31.37,31.37,0,0,0,4.42-8.15,25.76,25.76,0,0,0,1.51-9.16A25.3,25.3,0,0,0,248.15,116.58Z"/><path class="cls-3" d="M192.09,144.31c-5.93,29.58-31.25,49.42-56.57,44.33s-41-33.15-35.11-62.72S131.66,76.52,157,81.6,198,114.75,192.09,144.31Z"/><path class="cls-2" d="M182.58,133.92c0,.7,0,1.37,0,2.05-.49,10-4.41,17.72-9.2,17.72-4,0-7.41-5.45-8.69-13.07a39.68,39.68,0,0,1-.55-6.7c0-.3,0-.58,0-.89a113.81,113.81,0,0,0,18-5A41.24,41.24,0,0,1,182.58,133.92Z"/><path class="cls-2" d="M156.23,137.68c0,1.42-.08,2.81-.21,4.15-.9,8.92-4.69,15.62-9.21,15.62-4.16,0-7.69-5.68-8.94-13.59a40.48,40.48,0,0,1-.47-6.18c0-.45,0-.9,0-1.33a166.79,166.79,0,0,0,18.64-2.17C156.17,135.31,156.23,136.48,156.23,137.68Z"/></svg>